HIERARCHY
ROOT hip
{
  OFFSET 0 0 0
  CHANNELS 6 Xposition Yposition Zposition Zrotation Yrotation Xrotation
  JOINT abdomen
  {
    OFFSET 0 20.6881 -0.73152
    CHANNELS 3 Zrotation Xrotation Yrotation
    JOINT chest
    {
      OFFSET 0 11.7043 -0.48768
      CHANNELS 3 Zrotation Xrotation Yrotation
      JOINT neck
      {
        OFFSET 0 22.1894 -2.19456
        CHANNELS 3 Zrotation Xrotation Yrotation
        JOINT head
        {
          OFFSET -0.24384 7.07133 1.2192
          CHANNELS 3 Zrotation Xrotation Yrotation
          JOINT leftEye
          {
            OFFSET 4.14528 8.04674 8.04672
            CHANNELS 3 Zrotation Xrotation Yrotation
            End Site
            {
              OFFSET 1 0 0
            }
          }
          JOINT rightEye
          {
            OFFSET -3.6576 8.04674 8.04672
            CHANNELS 3 Zrotation Xrotation Yrotation
            End Site
            {
              OFFSET 1 0 0
            }
          }
        }
      }
      JOINT rCollar
      {
        OFFSET -2.68224 19.2634 -4.8768
        CHANNELS 3 Zrotation Xrotation Yrotation
        JOINT rShldr
        {
          OFFSET -8.77824 -1.95073 1.46304
          CHANNELS 3 Zrotation Xrotation Yrotation
          JOINT rForeArm
          {
            OFFSET -28.1742 -1.7115 0.48768
            CHANNELS 3 Zrotation Xrotation Yrotation
            JOINT rHand
            {
              OFFSET -22.5879 0.773209 7.07136
              CHANNELS 3 Zrotation Xrotation Yrotation
              JOINT rThumb1
              {
                OFFSET -1.2192 -0.487915 3.41376
                CHANNELS 3 Zrotation Xrotation Yrotation
                JOINT rThumb2
                {
                  OFFSET -3.37035 -0.52449 3.41376
                  CHANNELS 3 Zrotation Xrotation Yrotation
                  End Site
                  {
                    OFFSET -1.78271 -1.18214 1.43049
                  }
                }
              }
              JOINT rIndex1
              {
                OFFSET -7.75947 0.938293 5.60832
                CHANNELS 3 Zrotation Xrotation Yrotation
                JOINT rIndex2
                {
                  OFFSET -2.54057 -0.884171 1.56538
                  CHANNELS 3 Zrotation Xrotation Yrotation
                  End Site
                  {
                    OFFSET -1.62519 -0.234802 1.16502
                  }
                }
              }
              JOINT rMid1
              {
                OFFSET -8.24714 1.18213 3.41376
                CHANNELS 3 Zrotation Xrotation Yrotation
                JOINT rMid2
                {
                  OFFSET -3.10165 -0.590103 1.0647
                  CHANNELS 3 Zrotation Xrotation Yrotation
                  End Site
                  {
                    OFFSET -2.48547 -0.328903 0.83742
                  }
                }
              }
              JOINT rRing1
              {
                OFFSET -8.82822 0.546677 1.51678
                CHANNELS 3 Zrotation Xrotation Yrotation
                JOINT rRing2
                {
                  OFFSET -2.60934 -0.819778 -0.0198488
                  CHANNELS 3 Zrotation Xrotation Yrotation
                  End Site
                  {
                    OFFSET -2.33842 -0.294052 0.168128
                  }
                }
              }
              JOINT rPinky1
              {
                OFFSET -8.27202 -0.0477905 -0.4584
                CHANNELS 3 Zrotation Xrotation Yrotation
                JOINT rPinky2
                {
                  OFFSET -1.82734 -0.647385 -0.700984
                  CHANNELS 3 Zrotation Xrotation Yrotation
                  End Site
                  {
                    OFFSET -1.69225 -0.51767 -0.607171
                  }
                }
              }
            }
          }
        }
      }
      JOINT lCollar
      {
        OFFSET 2.68224 19.2634 -4.8768
        CHANNELS 3 Zrotation Xrotation Yrotation
        JOINT lShldr
        {
          OFFSET 8.77824 -1.95073 1.46304
          CHANNELS 3 Zrotation Xrotation Yrotation
          JOINT lForeArm
          {
            OFFSET 28.1742 -1.7115 0.48768
            CHANNELS 3 Zrotation Xrotation Yrotation
            JOINT lHand
            {
              OFFSET 22.5879 0.773209 7.07136
              CHANNELS 3 Zrotation Xrotation Yrotation
              JOINT lThumb1
              {
                OFFSET 1.2192 -0.487915 3.41376
                CHANNELS 3 Zrotation Xrotation Yrotation
                JOINT lThumb2
                {
                  OFFSET 3.37035 -0.52449 3.41376
                  CHANNELS 3 Zrotation Xrotation Yrotation
                  End Site
                  {
                    OFFSET 1.78271 -1.18214 1.43049
                  }
                }
              }
              JOINT lIndex1
              {
                OFFSET 7.75947 0.938293 5.60832
                CHANNELS 3 Zrotation Xrotation Yrotation
                JOINT lIndex2
                {
                  OFFSET 2.54057 -0.884171 1.56538
                  CHANNELS 3 Zrotation Xrotation Yrotation
                  End Site
                  {
                    OFFSET 1.62519 -0.234802 1.16502
                  }
                }
              }
              JOINT lMid1
              {
                OFFSET 8.24714 1.18213 3.41376
                CHANNELS 3 Zrotation Xrotation Yrotation
                JOINT lMid2
                {
                  OFFSET 3.10165 -0.590103 1.0647
                  CHANNELS 3 Zrotation Xrotation Yrotation
                  End Site
                  {
                    OFFSET 2.48547 -0.328903 0.83742
                  }
                }
              }
              JOINT lRing1
              {
                OFFSET 8.82822 0.546677 1.51678
                CHANNELS 3 Zrotation Xrotation Yrotation
                JOINT lRing2
                {
                  OFFSET 2.60934 -0.819778 -0.0198488
                  CHANNELS 3 Zrotation Xrotation Yrotation
                  End Site
                  {
                    OFFSET 2.33842 -0.294052 0.168128
                  }
                }
              }
              JOINT lPinky1
              {
                OFFSET 8.27202 -0.0477905 -0.4584
                CHANNELS 3 Zrotation Xrotation Yrotation
                JOINT lPinky2
                {
                  OFFSET 1.82734 -0.647385 -0.700984
                  CHANNELS 3 Zrotation Xrotation Yrotation
                  End Site
                  {
                    OFFSET 1.69225 -0.51767 -0.607171
                  }
                }
              }
            }
          }
        }
      }
    }
  }
  JOINT rButtock
  {
    OFFSET -8.77824 4.35084 1.2192
    CHANNELS 3 Zrotation Xrotation Yrotation
    JOINT rThigh
    {
      OFFSET 0 -1.70687 -2.19456
      CHANNELS 3 Zrotation Xrotation Yrotation
      JOINT rShin
      {
        OFFSET 0 -36.8199 0.73152
        CHANNELS 3 Zrotation Xrotation Yrotation
        JOINT rFoot
        {
          OFFSET 0.73152 -45.1104 -5.12064
          CHANNELS 3 Zrotation Xrotation Yrotation
          End Site
          {
            OFFSET -1.1221 -3.69964 12.103
          }
        }
      }
    }
  }
  JOINT lButtock
  {
    OFFSET 8.77824 4.35084 1.2192
    CHANNELS 3 Zrotation Xrotation Yrotation
    JOINT lThigh
    {
      OFFSET 0 -1.70687 -2.19456
      CHANNELS 3 Zrotation Xrotation Yrotation
      JOINT lShin
      {
        OFFSET 0 -36.8199 0.73152
        CHANNELS 3 Zrotation Xrotation Yrotation
        JOINT lFoot
        {
          OFFSET -0.73152 -45.1104 -5.12064
          CHANNELS 3 Zrotation Xrotation Yrotation
          End Site
          {
            OFFSET 1.1221 -3.69964 12.103
          }
        }
      }
    }
  }
}
MOTION
Frames:	6
Frame Time:	0.00833333
13.862037 0.541386 22.548655 -10.507169 -22.184566 7.822491 2.58499 9.827851 8.021014 0.901302 -8.110934 1.858886 -6.740533 15.925022 -6.506186 10.977844 -23.175386 -10.7425 0.046404 0.038652 -0.14329 -0.047984 -0.052674 0.195027 -0.101582 0.158324 -0.130577 73.08475 42.632805 -12.32448 -20.263346 -13.872275 39.770584 -0.621911 18.181028 1.884107 -0.011822 0.195157 -0.175377 -0.045011 0.06169 -0.065566 -0.09342 0.167091 -0.035708 7.553753 5.205828 0.355459 0.201607 0.129243 -0.186957 2.607 1.027405 0.351326 -0.044104 0.219175 0.027783 10.589705 0.878014 -0.391842 0.308057 -0.038162 -0.148579 2.303955 -0.785239 -0.16655 -0.219612 -0.069479 0.273046 -73.58646 26.297249 -1.423062 14.066935 -6.626474 -24.456297 0.650066 6.889346 -1.17047 -0.315724 -0.11394 -0.053421 0.034871 -0.251471 0.248608 -0.154998 -0.191218 -0.000479 -7.771169 5.65675 -0.276332 -0.173353 0.198163 -0.213524 -2.842329 1.123871 -0.234034 -7.8e-05 -0.024683 -0.026514 -10.568097 0.545449 -0.014802 -0.17995 -0.174186 0.010505 -1.941546 -0.629904 0.249725 0.109731 -0.269278 0.197226 -1.094709 -6.179402 1.408712 -1.235863 55.14555 2.398286 -10.744267 -17.006063 -27.16053 0.085007 -0.134655 0.01062 37.78156 -60.157692 26.068657 0.599008 49.52837 0.568462 -0.839004 5.044914 3.39792
14.027963 0.574004 22.543188 -9.876479 -21.96776 7.643284 2.051461 9.902202 8.054353 0.907487 -8.068801 1.859126 -6.884436 16.1742 -6.679979 11.230697 -23.779438 -11.146873 0.078741 0.015466 -0.143614 -0.023764 -0.033897 0.224109 -0.129163 0.15555 -0.113386 72.29569 42.9857 -11.400676 -20.393417 -13.883029 39.796158 -0.62328 18.350813 1.910288 -0.042203 0.19156 -0.179079 -0.025862 0.069069 -0.103213 -0.061614 0.170091 -0.094719 7.521469 5.200152 0.393882 0.219854 0.152943 -0.147315 2.59867 1.034793 0.395087 -0.036935 0.226865 0.034113 10.617993 0.872784 -0.444524 0.316012 -0.011278 -0.142494 2.299746 -0.819925 -0.113319 -0.239393 -0.045893 0.339179 -73.81094 26.51185 -0.728952 14.390798 -6.72843 -24.98376 0.634932 6.328118 -1.132648 -0.301968 -0.107045 -0.055001 0.056849 -0.260503 0.281965 -0.143544 -0.206116 0.006261 -7.766156 5.715839 -0.282778 -0.16822 0.23125 -0.163392 -2.868241 1.11398 -0.207131 -0.005531 -0.016214 -0.034913 -10.602343 0.598146 0.005683 -0.15967 -0.183136 0.006203 -1.967012 -0.643476 0.228189 0.119666 -0.277119 0.205323 -0.787358 -7.071928 1.722389 -1.225158 55.41014 2.211461 -10.464072 -16.770195 -26.69232 0.05716 -0.108866 0.063461 35.05703 -59.468224 22.74157 0.523899 47.150833 0.664381 -0.786807 4.953719 3.754119
14.192148 0.610419 22.540968 -9.235341 -21.730284 7.402242 1.569974 9.972992 8.071304 0.904984 -8.027984 1.850826 -7.029312 16.423386 -6.87849 11.471477 -24.357065 -11.577011 0.114307 0.000353 -0.143272 -0.001035 -0.02104 0.251847 -0.153943 0.153393 -0.098662 71.36067 43.302185 -10.286497 -20.517004 -13.883411 39.789375 -0.615415 18.54262 1.906725 -0.069796 0.187131 -0.172802 -0.000491 0.07952 -0.139827 -0.029528 0.165844 -0.157459 7.490913 5.198574 0.432904 0.232241 0.173694 -0.102484 2.599974 1.043018 0.432517 -0.034847 0.233295 0.048048 10.640824 0.864369 -0.496176 0.312982 0.020983 -0.129889 2.29271 -0.850223 -0.065732 -0.253744 -0.021342 0.40726 -74.10853 26.697762 0.056096 14.723938 -6.816555 -25.51746 0.61472 5.791287 -1.085059 -0.286063 -0.104109 -0.055381 0.079452 -0.26531 0.313207 -0.126975 -0.217101 0.017659 -7.758814 5.774714 -0.293956 -0.168137 0.262484 -0.094142 -2.894272 1.095105 -0.172651 -0.010905 -0.001752 -0.039069 -10.629561 0.657301 0.026671 -0.135942 -0.190549 0.003173 -1.999801 -0.65119 0.205641 0.127191 -0.27976 0.208068 -0.482321 -7.984928 1.945518 -1.198886 55.676197 2.005598 -10.211459 -16.567179 -26.209755 0.021107 -0.087078 0.115945 32.46309 -58.694847 19.591713 0.464948 44.879257 0.72278 -0.690978 4.738399 4.124739
14.354359 0.648637 22.53858 -8.615396 -21.468733 7.091193 1.152715 10.043468 8.066162 0.897299 -7.98878 1.833863 -7.169486 16.664928 -7.102956 11.686962 -24.89258 -12.033383 0.150006 -0.007182 -0.141168 0.018368 -0.014818 0.277345 -0.174406 0.152297 -0.088512 70.29112 43.575523 -8.996133 -20.63108 -13.883048 39.76472 -0.589623 18.763044 1.885454 -0.094865 0.182612 -0.155656 0.029583 0.092454 -0.175286 0.000551 0.156512 -0.219748 7.463024 5.200182 0.472372 0.240034 0.190652 -0.057826 2.611314 1.052404 0.461594 -0.037704 0.240768 0.067673 10.656554 0.853245 -0.541894 0.297532 0.054731 -0.112194 2.282294 -0.873805 -0.027959 -0.262164 0.001148 0.472038 -74.467926 26.84755 0.922376 15.051324 -6.882519 -26.026918 0.587732 5.293432 -1.029508 -0.26872 -0.103461 -0.054845 0.099994 -0.266637 0.342111 -0.107424 -0.222934 0.033796 -7.750966 5.830848 -0.309164 -0.173267 0.289948 -0.009854 -2.918411 1.069373 -0.132062 -0.014398 0.018395 -0.037694 -10.648434 0.717924 0.045785 -0.110087 -0.196294 0.001068 -2.041014 -0.651773 0.183238 0.132413 -0.276891 0.207764 -0.208302 -8.920818 2.060709 -1.16146 55.96431 1.79087 -9.992951 -16.39949 -25.713453 -0.02056 -0.072217 0.166896 30.031475 -57.881935 16.699919 0.418235 42.80478 0.751122 -0.553314 4.401376 4.491889
14.517325 0.686085 22.531523 -8.04337 -21.188154 6.719796 0.808538 10.119685 8.035963 0.888998 -7.952884 1.809264 -7.299948 16.892508 -7.350866 11.866043 -25.37636 -12.511827 0.181955 -0.008143 -0.137044 0.032579 -0.014356 0.300369 -0.188799 0.151429 -0.083905 69.11775 43.804703 -7.565462 -20.731745 -13.894011 39.74552 -0.537177 19.013296 1.867834 -0.118635 0.177953 -0.128679 0.062801 0.106345 -0.208857 0.027031 0.144302 -0.277482 7.439121 5.204258 0.512069 0.244806 0.203754 -0.018253 2.631576 1.062769 0.481906 -0.045492 0.250543 0.090536 10.665156 0.840146 -0.577532 0.270212 0.085543 -0.09181 2.268598 -0.889531 -0.002492 -0.26508 0.017986 0.527764 -74.868904 26.955503 1.849442 15.356157 -6.92327 -26.48544 0.552879 4.8627 -0.972264 -0.250151 -0.102986 -0.05396 0.116404 -0.265761 0.3686 -0.087843 -0.223658 0.053482 -7.744164 5.88157 -0.326664 -0.182537 0.312028 0.08214 -2.939408 1.038956 -0.08843 -0.014202 0.04282 -0.031324 -10.658573 0.774342 0.060675 -0.084352 -0.200133 -0.000354 -2.091594 -0.645542 0.162525 0.135658 -0.268576 0.206838 0.00111 -9.880244 2.048927 -1.121707 56.294643 1.583106 -9.813293 -16.26928 -25.207617 -0.064392 -0.065732 0.21549 27.78122 -57.08123 14.134752 0.381584 41.02385 0.757773 -0.378132 3.94698 4.83923
14.685637 0.719956 22.515602 -7.532815 -20.899094 6.315056 0.540369 10.211063 7.979764 0.885676 -7.92426 1.778652 -7.417769 17.101439 -7.617646 12.002052 -25.808348 -13.007662 0.206474 -0.003416 -0.13148 0.039968 -0.017958 0.321088 -0.195036 0.148978 -0.084494 67.88314 43.99195 -6.038903 -20.815258 -13.928537 39.75983 -0.452702 19.291119 1.876458 -0.142708 0.172795 -0.094139 0.097864 0.119465 -0.238997 0.049349 0.130708 -0.327606 7.421157 5.210634 0.55164 0.247111 0.213231 0.012994 2.6594 1.073411 0.494297 -0.058533 0.262279 0.114704 10.6682 0.826461 -0.600714 0.233319 0.10951 -0.070977 2.252314 -0.897694 0.010087 -0.263302 0.025486 0.569566 -75.28769 27.020836 2.804465 15.621765 -6.937736 -26.867964 0.511252 4.534802 -0.921674 -0.230365 -0.101061 -0.053335 0.127831 -0.264025 0.392601 -0.071598 -0.22117 0.074911 -7.739454 5.924515 -0.344479 -0.193821 0.327426 0.173376 -2.956932 1.005778 -0.04569 -0.009397 0.069129 -0.022454 -10.660259 0.822175 0.069925 -0.061709 -0.201105 -0.001152 -2.151837 -0.633679 0.144688 0.137302 -0.255253 0.206837 0.118614 -10.864056 1.898853 -1.091923 56.685307 1.402237 -9.674518 -16.178104 -24.701046 -0.106798 -0.067285 0.260368 25.718407 -56.342262 11.942133 0.356825 39.627136 0.747761 -0.17244 3.383935 5.152714
